<?xml version="1.0" encoding="utf-8"?>
<!-- Generator: Adobe Illustrator 26.5.0, SVG Export Plug-In . SVG Version: 6.00 Build 0)  -->
<svg version="1.0" id="katman_1" xmlns="http://www.w3.org/2000/svg" xmlns:xlink="http://www.w3.org/1999/xlink" x="0px" y="0px"
	 viewBox="0 0 1190.55 841.89" style="enable-background:new 0 0 1190.55 841.89;" xml:space="preserve">
<style type="text/css">
	.st0{fill:#FFCC00;}
	.st1{fill:#EF7D00;}
	.st2{fill:#ABD2EB;}
	.st3{fill:#4B4445;}
</style>
<path class="st0" d="M142.19,349.72c4.32,9.21,8.97,19.17,13.54,27.99h124.89c1.1-7.75,2.12-18.4,2.91-27.99H142.19z"/>
<path class="st1" d="M284.94,323.38H133.15c1.69,3.32,3.54,7.13,5.49,11.23h145.49C284.48,330.11,284.75,326.18,284.94,323.38"/>
<path class="st2" d="M174.67,406.45c13.66,3.48,100.13-9.44,103.61-15.24c0.34-0.56,0.67-1.61,1.01-3.01H159.78
	C165.34,398.11,170.57,405.4,174.67,406.45"/>
<path class="st3" d="M312.9,310.63c-12.46,0-16.97,14.3-19.11,31.55H132.97c-11.2-19.73-23.68-35.28-39.95-35.28
	c-2.08,0-3.77,1.69-3.77,3.77c0,2.08,1.69,3.77,3.77,3.77c11.59,0,21.86,12.1,31.2,27.74h-1.39c-2.08,0-3.77,1.69-3.77,3.77
	c0,2.08,1.69,3.77,3.77,3.77h5.69c3.84,7.01,7.53,14.41,11.08,21.56c1.08,2.18,2.15,4.32,3.21,6.43h-1.34
	c-2.08,0-3.77,1.69-3.77,3.77c0,2.08,1.69,3.77,3.77,3.77h5.17c10.71,20.69,20.96,36.52,34.33,36.52c23.21,0,71.67-6.31,96.99-14.75
	c-18.6,16.03-55.13,23.21-83.74,28.83c-27.67,5.43-41.04,8.4-42.41,16.3c-0.42,2.42,0.22,4.67,1.85,6.52
	c4.3,4.87,15.31,5.64,21.8,5.64v4.58c-3.71,1.49-6.33,5.11-6.33,9.35c0,5.57,4.52,10.09,10.1,10.09c5.58,0,10.1-4.52,10.1-10.09
	c0-4.24-2.62-7.86-6.33-9.35v-4.67h83.15v4.67c-3.71,1.49-6.33,5.11-6.33,9.35c0,5.57,4.52,10.09,10.1,10.09
	c5.58,0,10.1-4.52,10.1-10.09c0-4.24-2.62-7.86-6.33-9.35v-4.67h19.69c2.08,0,3.77-1.68,3.77-3.77c0-2.08-1.69-3.77-3.77-3.77
	h-23.46c0,0,0,0-0.01,0c0,0,0,0,0,0l-90.66,0c-0.01,0-0.01,0-0.02,0c-0.01,0-0.01,0-0.02,0h-0.16c-10.01,0.5-19.04-1.32-19.84-3.14
	c1.71-3.47,21.8-7.42,36.47-10.3c40.04-7.86,94.71-18.62,101.23-53.51c0.04-0.2,0.09-0.4,0.12-0.6c0.02-0.12,0.05-0.23,0.07-0.36
	c0-0.02,0-0.03,0-0.05c0.21-1.1,0.41-2.25,0.59-3.48h3.29c2.08,0,3.77-1.69,3.77-3.77c0-2.08-1.69-3.77-3.77-3.77h-2.44
	c0.36-3.95,0.65-8.37,0.97-13.29c0.3-4.65,0.62-9.7,1.08-14.71h2.63c2.08,0,3.77-1.69,3.77-3.77c0-2.08-1.69-3.77-3.77-3.77h-1.81
	c1.69-13.03,4.8-24.01,11.5-24.01c2.08,0,3.77-1.69,3.77-3.77C316.67,312.32,314.98,310.63,312.9,310.63 M155.16,385.25h134.89
	c-0.15,0.94-0.31,1.84-0.47,2.68c-0.06,0.32-0.13,0.63-0.2,0.95c-0.6,2.66-1.33,4.66-2.25,5.59c-8.73,8.72-73.33,19.77-106.16,19.77
	C172.36,414.24,163.69,401.25,155.16,385.25z M291.98,363.95c-0.28,4.44-0.59,9.26-1.02,13.76H151.25c-1.64-3.23-3.28-6.51-4.9-9.79
	c-3.04-6.12-6.11-12.27-9.25-18.2H293C292.58,354.44,292.28,359.25,291.98,363.95z"/>
<g>
	<path d="M394.63,482.62c-9.34,0-16.74-0.75-22.2-2.26c-5.46-1.51-8.19-3.63-8.19-6.36c0-1.43,1.04-3.84,3.12-7.22
		c2.08-3.37,3.7-5.06,4.85-5.06c1.72,0,2.59,0.36,2.59,1.08c0,0.43-0.25,0.94-0.75,1.51c-0.5,0.58-0.75,1.15-0.75,1.72
		c0,0.43,0.9,1.08,2.69,1.94c1.79,0.86,4.56,1.65,8.3,2.37c3.73,0.72,8.26,1.08,13.58,1.08c8.47,0,15.91-1.65,22.3-4.96
		c6.39-3.3,11.31-7.47,14.76-12.5c3.45-5.03,5.17-9.91,5.17-14.65c0-6.17-2.98-11.49-8.94-15.95c-5.96-4.45-15.55-8.69-28.77-12.71
		c-12.79-4.17-22.66-7.65-29.63-10.45c-6.97-2.8-12.61-6.25-16.92-10.34c-4.31-4.09-6.46-9.08-6.46-14.98
		c0-7.9,4.45-15.69,13.36-23.38c8.91-7.68,19.9-13.93,32.97-18.75c13.07-4.81,25.21-7.22,36.42-7.22c5.74,0,8.84,1.15,9.27,3.45
		c0.43,2.3,0.65,4.89,0.65,7.76c0,2.16-0.79,3.23-2.37,3.23c-0.72,0-1.55-0.25-2.48-0.75c-0.94-0.5-1.76-0.9-2.48-1.19
		c-0.86-0.29-1.87-0.57-3.02-0.86c-1.15-0.29-2.8-0.43-4.96-0.43c-7.47,0-16.45,1.94-26.94,5.82c-10.49,3.88-19.58,8.69-27.26,14.44
		c-7.69,5.75-11.53,11.28-11.53,16.59c0,4.31,1.76,8.05,5.28,11.21c3.52,3.16,8.22,5.86,14.11,8.08c5.89,2.23,14.22,4.99,25,8.3
		c15.8,4.6,27.48,9.77,35.02,15.52c7.54,5.75,11.31,12.79,11.31,21.12c0,7.19-2.41,14.26-7.22,21.23
		c-4.81,6.97-11.57,12.64-20.26,17.02C415.57,480.43,405.7,482.62,394.63,482.62z"/>
	<path d="M558.84,484.77c-1.44,0-2.66-0.32-3.66-0.97c-1.01-0.65-1.51-1.55-1.51-2.69l0.43-14.87c0.72-17.67,1.08-32.11,1.08-43.31
		c0-16.38-1.15-27.83-3.45-34.37c-2.3-6.54-4.96-9.81-7.97-9.81c-6.75,0-15.23,10.45-25.43,31.35
		c-10.2,20.9-20.04,43.71-29.52,68.42c-0.72,2.01-1.69,3.95-2.91,5.82c-1.22,1.87-2.48,2.8-3.77,2.8c-3.16,0-4.74-1.01-4.74-3.02
		c0-8.76-0.36-25.18-1.08-49.24c-0.72-24.06-1.29-39.9-1.72-47.52c-1.29-25.71-2.52-41.59-3.66-47.62c-1.15-6.03-1.72-9.27-1.72-9.7
		c0-1.43,0.79-2.51,2.37-3.23c1.58-0.72,3.59-1.08,6.03-1.08c2.01,0,3.48,4.56,4.42,13.68c0.93,9.12,1.62,20.79,2.05,35.02
		l0.22,6.03c0.29,4.45,0.5,17.21,0.65,38.25c0.14,21.05,0.22,36.53,0.22,46.44c6.61-16.52,12.82-31.25,18.64-44.18
		c5.82-12.93,12.53-25.03,20.15-36.31c7.61-11.28,14.65-16.92,21.12-16.92c5.46,0,10.05,4.56,13.79,13.68
		c3.73,9.12,5.6,22.73,5.6,40.84c0,8.05,0.14,19.25,0.43,33.62l0.22,22.63c0,1.72-0.58,3.2-1.72,4.42
		C562.21,484.16,560.7,484.77,558.84,484.77z"/>
	<path d="M616.37,477.02c-9.63,0-16.74-2.66-21.33-7.97c-4.6-5.31-6.9-11.92-6.9-19.83c0-6.9,1.26-15.44,3.77-25.64
		c2.51-10.2,6.07-19.32,10.67-27.37c0.29-0.57,1.47-2.69,3.55-6.36c2.08-3.66,4.42-6.46,7-8.4s5.31-2.91,8.19-2.91
		c1.29,0,2.48,0.32,3.55,0.97c1.08,0.65,1.62,1.47,1.62,2.48c0,0.29-0.4,0.97-1.19,2.05c-0.79,1.08-1.4,1.91-1.83,2.48
		c-4.88,5.89-8.84,11.71-11.85,17.46c-4.02,7.33-7.15,14.58-9.38,21.76c-2.23,7.19-3.34,15.01-3.34,23.49
		c0,11.35,6.9,17.02,20.69,17.02c6.46,0,12.46-1.87,17.99-5.6c5.53-3.73,9.95-8.3,13.25-13.68c3.3-5.39,4.96-10.31,4.96-14.76
		c0-5.03-1.65-9.41-4.96-13.15c-3.31-3.73-7.83-7.68-13.58-11.85c-3.74-2.73-6.46-4.96-8.19-6.68c-1.72-1.72-2.59-3.16-2.59-4.31
		c0-1.72,1.22-3.12,3.66-4.2c2.44-1.08,5.31-1.62,8.62-1.62c1.87,0,3.09,0.11,3.66,0.32c0.57,0.22,0.86,0.61,0.86,1.19
		c0,0.29-0.25,0.75-0.76,1.4c-0.5,0.65-0.75,1.19-0.75,1.62s1.44,1.87,4.31,4.31c5.74,4.74,10.56,9.56,14.44,14.44
		c3.88,4.89,5.82,10.63,5.82,17.24c0,5.6-2.08,12.07-6.25,19.39c-4.17,7.33-10.06,13.61-17.67,18.86
		C634.83,474.4,626.14,477.02,616.37,477.02z"/>
	<path d="M707.74,458.27c-0.29,9.77-0.43,17.74-0.43,23.92c0,8.19,0.36,15.66,1.08,22.41c0.29,2.59,0.43,4.38,0.43,5.39
		c0,2.3-0.5,4.27-1.51,5.93c-1.01,1.65-2.45,2.48-4.31,2.48c-2.59,0-4.02-0.94-4.31-2.8c-0.14-2.44-0.32-6.22-0.54-11.31
		c-0.21-5.1-0.32-10.24-0.32-15.41l0.22-30.17c-0.72,0-2.05,0.07-3.99,0.22c-1.94,0.14-3.85,0.21-5.71,0.21
		c-3.45,0-5.17-2.37-5.17-7.11c0-3.45,0.86-5.17,2.59-5.17c0.57,0,2.3,0.43,5.17,1.29c2.87,0.86,5.31,1.29,7.33,1.29l-0.22-60.98
		c-1.15-0.14-3.52-0.39-7.11-0.75c-3.59-0.36-6.22-1.04-7.87-2.05c-1.65-1-2.48-2.44-2.48-4.31c0-3.73,0.72-5.6,2.16-5.6
		c1.58,0,3.52,0.58,5.82,1.72c0.29,0.14,1.15,0.54,2.59,1.19c1.43,0.65,3.45,1.11,6.03,1.4c0.86-2.3,1.69-3.88,2.48-4.74
		c0.79-0.86,2.33-1.29,4.63-1.29c2.87,0,4.31,0.58,4.31,1.72c0,0.43-0.22,1.19-0.65,2.26c-0.43,1.08-0.65,2.12-0.65,3.12
		c8.91,1.29,19,3.92,30.28,7.87c11.28,3.95,21.04,8.94,29.31,14.98c8.26,6.03,12.39,12.64,12.39,19.83c0,10.2-6.61,18.1-19.83,23.7
		C746.24,453.1,729,456.69,707.74,458.27z M706.88,389.31c0.29,8.33,0.5,19.36,0.65,33.08c0.14,13.72,0.22,22.81,0.22,27.26
		c8.62,0,17.81-1.11,27.58-3.34c9.77-2.23,17.99-5.24,24.67-9.05c6.68-3.8,10.02-8.01,10.02-12.61c0-6.03-3.45-11.49-10.34-16.38
		c-6.9-4.88-15.19-8.91-24.89-12.07C725.09,393.05,715.79,390.75,706.88,389.31z"/>
	<path d="M803.2,343.84c-2.44,0-4.92-1-7.43-3.02c-2.52-2.01-3.77-3.66-3.77-4.96c0-1.58,0.75-3.09,2.26-4.53
		c1.51-1.43,3.05-2.15,4.63-2.15c2.15,0.72,3.95,1.87,5.39,3.45c1.15,1.15,2.44,2.66,3.88,4.53c1.43,1.87,2.16,3.02,2.16,3.45
		C810.32,342.76,807.95,343.84,803.2,343.84z M809.67,480.46c-2.01-0.14-3.49-3.38-4.42-9.7c-0.94-6.32-1.91-18.32-2.91-35.99
		c-0.58-11.64-1.08-23.02-1.51-34.16c-0.43-11.13-0.72-19.72-0.86-25.75c0-1.58,0.25-2.76,0.75-3.56c0.5-0.79,1.47-1.19,2.91-1.19
		c3.3,0,5.39,1.37,6.25,4.09c0.86,2.73,1.29,7.97,1.29,15.73l-0.22,25.43c0,14.51,0.43,26.15,1.29,34.91
		c0,0.43,0.65,5.03,1.94,13.79c1,6.03,1.51,10.06,1.51,12.07c0,1.43-0.61,2.55-1.83,3.34C812.65,480.28,811.25,480.6,809.67,480.46z
		"/>
	<path d="M909.66,483.26c-1.44,0-2.66-0.32-3.66-0.97c-1.01-0.65-1.51-1.55-1.51-2.69c0-5.89,0.43-15.01,1.29-27.37
		c0.86-13.22,1.29-24.21,1.29-32.97c0-8.47-0.25-15.41-0.75-20.79c-0.5-5.39-1.69-8.08-3.56-8.08c-4.88,0-10.24,6.07-16.05,18.21
		c-5.82,12.14-12.46,28.12-19.93,47.95l-3.23,8.62c-0.58,1.44-1.54,2.59-2.91,3.45c-1.37,0.86-2.77,1.29-4.2,1.29
		c-1.72,0-2.88-0.14-3.45-0.43c-0.58-0.29-0.94-1.15-1.08-2.59l-1.72-17.67l-3.23-31.03c-1.01-12.35-2.23-23.13-3.66-32.32
		c-0.43-2.15-0.65-3.8-0.65-4.96c0-2.15,0.93-3.91,2.8-5.28c1.87-1.36,4.02-2.05,6.46-2.05c1.43,0,2.48,3.45,3.12,10.34
		s1.33,18.03,2.05,33.4l0.86,11.42c1.15,14.51,1.79,23.71,1.94,27.58c0.43-0.86,0.83-1.83,1.19-2.91c0.36-1.08,0.82-2.26,1.4-3.56
		c7.76-20.11,15.05-36.88,21.87-50.32c6.82-13.43,13.39-20.15,19.72-20.15c4.45,0,7.51,3.77,9.16,11.31
		c1.65,7.54,2.69,17.21,3.12,28.98c0.43,13.07,0.65,32.18,0.65,57.32c0,1.72-0.72,3.2-2.15,4.42
		C913.39,482.65,911.67,483.26,909.66,483.26z"/>
	<path d="M1015.68,526.36c-6.18,5.89-12.61,10.67-19.29,14.33c-6.68,3.66-12.46,5.5-17.35,5.5c-2.73,0-4.67-0.68-5.82-2.05
		c-1.15-1.37-1.72-2.98-1.72-4.85c0-1.72,3.23-3.74,9.7-6.03c9.77-3.16,18.82-8.48,27.15-15.95c6.46-5.75,11.21-12.28,14.22-19.61
		c3.02-7.33,4.53-14.8,4.53-22.41c0-8.62-0.54-16.52-1.62-23.7c-1.08-7.18-2.77-16.02-5.06-26.51c-2.59-11.06-4.38-20.47-5.39-28.23
		c-2.44,6.61-6.22,14.58-11.31,23.92c-5.1,9.34-11.17,18.32-18.21,26.94c-6.61,8.19-12.61,14.3-17.99,18.32
		c-5.39,4.02-10.6,6.03-15.62,6.03c-4.31,0-7.51-1.69-9.59-5.06c-2.08-3.37-3.12-8.01-3.12-13.9c0-9.77,3.02-21.26,9.05-34.48
		c6.03-13.22,13.58-24.57,22.63-34.05s17.96-14.22,26.72-14.22c3.02,0,5.35,1.08,7,3.23c1.65,2.15,2.48,4.74,2.48,7.76
		c0,3.88-0.79,5.82-2.37,5.82c-0.43,0-0.97-0.54-1.62-1.62s-1.4-2.05-2.26-2.91s-1.8-1.29-2.8-1.29c-7.33,0-14.76,4.09-22.3,12.28
		c-7.54,8.19-13.79,17.78-18.75,28.77c-4.96,10.99-7.43,20.01-7.43,27.04c0,3.88,0.54,6.68,1.62,8.4c1.08,1.72,2.76,2.59,5.06,2.59
		c3.45,0,7.61-2.01,12.5-6.03c4.88-4.02,10.7-10.34,17.46-18.96c6.03-7.61,11.53-16.49,16.49-26.61
		c4.96-10.13,8.73-19.79,11.31-28.98c0.29-0.86,0.75-1.58,1.4-2.16c0.65-0.57,1.4-0.86,2.26-0.86c1.29,0,2.62,0.4,3.99,1.19
		c1.36,0.79,2.05,1.62,2.05,2.48c0,0.58-0.11,1.19-0.32,1.83c-0.22,0.65-0.4,1.04-0.54,1.19c1,7.9,3.37,20.19,7.11,36.85
		c2.73,11.78,4.77,21.66,6.14,29.63c1.36,7.97,2.05,15.77,2.05,23.38c0,11.21-2.23,21.41-6.68,30.6
		C1026.95,513.14,1021.71,520.62,1015.68,526.36z"/>
</g>
</svg>
